<?xml version="1.0" encoding="UTF-8"?>
<svg version="1.1" xmlns="http://www.w3.org/2000/svg" width="3516" height="3522">
<path d="M0 0 C1.85568635 -0.00424107 1.85568635 -0.00424107 3.74886131 -0.00856781 C9.65850337 -0.02192551 15.56813018 -0.03185841 21.47778636 -0.0357697 C27.43505755 -0.03974361 33.39213548 -0.0522321 39.34936523 -0.078125 C145.89181359 -0.53130806 252.04452609 9.44063592 517.19921875 66.203125 C518.0205127 66.43906372 518.84180664 66.67500244 519.68798828 66.91809082 C605.01614419 91.48595953 688.62840738 122.13524746 779.19921875 164.203125 C780.55688072 164.83660889 781.9146321 165.46990119 783.27246094 166.10302734 C806.26192219 176.82608134 829.07239672 187.812558 851.46386719 199.74560547 C853.43493056 200.79587754 855.40706818 201.84413444 857.37988281 202.89111328 C873.45698388 211.42533236 889.40614873 220.1511276 905.19921875 229.203125 C906.23788086 229.79593262 907.27654297 230.38874023 908.34667969 230.99951172 C923.78876126 239.81527502 939.07641767 248.85015975 954.19921875 258.203125 C955.68832764 259.12375732 955.68832764 259.12375732 957.20751953 260.06298828 C996.86883326 284.62729228 1035.48519141 310.74941451 1073.19921875 338.203125 C1073.97555664 338.76789551 1074.75189453 339.33266602 1075.55175781 339.91455078 C1086.59089516 347.95890776 1097.44352295 356.21190513 1108.19335938 364.63818359 C1111.05352437 366.86964143 1113.93922898 369.06635324 1116.82421875 371.265625 C1123.14207051 376.11383741 1129.31387486 381.13339847 1135.48046875 386.171875 C1138.43033266 388.58162299 1141.40101953 390.96283081 1144.38671875 393.328125 C1148.77104987 396.82234862 1153.04614897 400.43622945 1157.31542969 404.0690918 C1160.72428593 406.9666196 1164.16296736 409.82075623 1167.63671875 412.640625 C1176.96392773 420.24107663 1186.06165283 428.10764581 1194.97265625 436.19140625 C1197.03026266 438.05047169 1199.10768638 439.88240858 1201.19921875 441.703125 C1205.05032453 445.05930956 1208.84856689 448.47186693 1212.640625 451.89453125 C1214.29174208 453.3843178 1215.94522019 454.87149377 1217.6015625 456.35546875 C1223.2977567 461.46080974 1228.94478619 466.6167185 1234.55029297 471.82128906 C1236.79757335 473.90702364 1239.0517645 475.98464781 1241.3137207 478.05444336 C1254.6621472 490.34828866 1267.41093767 503.2624205 1280.22924805 516.1027832 C1283.60782504 519.48710328 1286.99093783 522.86684825 1290.37535954 526.24532223 C1293.0118614 528.87819692 1295.64596044 531.51346521 1298.279356 534.14944649 C1299.52602469 535.39677606 1300.77341939 536.64338049 1302.02159309 537.88920403 C1313.70849521 549.55888744 1313.70849521 549.55888744 1318.91233826 555.69606018 C1320.57303392 557.64089968 1322.36018267 559.42750396 1324.19921875 561.203125 C1327.32675928 564.28896499 1330.23304132 567.484368 1333.09375 570.81640625 C1335.30506797 573.32311363 1337.57884926 575.76040393 1339.86669922 578.19702148 C1345.1073359 583.77859178 1350.10397242 589.44466124 1354.890625 595.42578125 C1357.55202833 598.62757104 1360.35403899 601.66527042 1363.19921875 604.703125 C1367.5984806 609.40580795 1371.75146308 614.23012476 1375.78515625 619.25390625 C1378.70593695 622.82217393 1381.72843017 626.29301764 1384.76171875 629.765625 C1388.97350538 634.597729 1393.09695728 639.4698274 1397.0625 644.5078125 C1398.73057075 646.61196025 1400.4150955 648.69702651 1402.1171875 650.7734375 C1408.35448736 658.38489693 1414.45029928 666.07870037 1420.39550781 673.9206543 C1423.90170456 678.53637362 1427.48739799 683.07505573 1431.13671875 687.578125 C1437.49310538 695.44928763 1443.45637766 703.59541606 1449.41699219 711.76806641 C1451.1705664 714.16397725 1452.93628503 716.55035323 1454.70703125 718.93359375 C1462.44818425 729.35903918 1469.9741963 739.91608181 1477.37646484 750.58447266 C1479.23126119 753.24915864 1481.09858456 755.90467598 1482.96875 758.55859375 C1520.69240449 812.21854823 1554.43450808 868.62637998 1585.62451172 926.29638672 C1586.69851829 928.2788863 1587.77580775 930.25961006 1588.85595703 932.23876953 C1604.84741035 961.54207624 1619.86108187 991.39592513 1633.65283203 1021.79833984 C1634.98949009 1024.7413511 1636.33561589 1027.67980503 1637.68611145 1030.6164856 C1675.6911987 1113.32220204 1707.15345737 1199.49150694 1739.19921875 1317.203125 C1739.43942749 1318.11799683 1739.67963623 1319.03286865 1739.92712402 1319.97546387 C1759.26151286 1393.64620947 1773.10467049 1468.75136598 1782.44921875 1544.328125 C1782.56228363 1545.23313751 1782.67534851 1546.13815002 1782.7918396 1547.07058716 C1783.364555 1551.694206 1783.90267802 1556.31978969 1784.40104675 1560.95202637 C1784.87649041 1565.3527208 1785.38825453 1569.74658961 1785.93283111 1574.1392374 C1789.86413621 1606.40328192 1789.82580551 1638.68432136 1789.80394127 1671.12787481 C1789.80024008 1676.76845455 1789.80396816 1682.40898815 1789.81235886 1688.04956245 C1789.81354923 1688.86499632 1789.81473961 1689.68043019 1789.81596606 1690.52057417 C1789.81839064 1692.1794256 1789.82081891 1693.83827702 1789.82325082 1695.49712843 C1789.84481502 1710.92375691 1789.84076873 1726.35029716 1789.82848112 1741.77693034 C1789.81817948 1755.7280772 1789.8405901 1769.67894319 1789.87867756 1783.63003462 C1789.9179284 1798.12408419 1789.93386044 1812.61800267 1789.92643106 1827.11210543 C1789.92267782 1835.18137317 1789.92702711 1843.25040093 1789.95586014 1851.31962395 C1790.08879999 1890.7476563 1788.41080654 1929.23089505 1783.54626954 1968.39891553 C1783.03391911 1972.53876476 1782.54475697 1976.68131657 1782.05276489 1980.82362366 C1781.24279467 1987.58683968 1780.33685133 1994.33333242 1779.38671875 2001.078125 C1779.22313873 2002.26055786 1779.05955872 2003.44299072 1778.89102173 2004.66125488 C1763.36981988 2116.65975949 1736.92016985 2226.79223701 1614.19921875 2540.203125 C1613.80031433 2541.01189087 1613.40140991 2541.82065674 1612.99041748 2542.65393066 C1593.99789316 2581.14241122 1593.99789316 2581.14241122 1583.75097656 2599.42041016 C1581.95313278 2602.64442266 1580.18046537 2605.88192033 1578.41015625 2609.12109375 C1569.92376921 2624.6319943 1561.21737176 2639.99332305 1552.19921875 2655.203125 C1551.69471191 2656.05632324 1551.19020508 2656.90952148 1550.67041016 2657.78857422 C1542.97266398 2670.78881793 1535.00415438 2683.61459467 1526.95849609 2696.40185547 C1525.39257487 2698.89524711 1523.83498738 2701.39353792 1522.28125 2703.89453125 C1509.93908726 2723.69500145 1496.89830105 2743.11171204 1483.55810547 2762.25244141 C1482.0086437 2764.47669572 1480.46559755 2766.70535271 1478.921875 2768.93359375 C1471.441104 2779.70352251 1463.76924077 2790.31423375 1455.94921875 2800.83984375 C1454.19041178 2803.21501834 1452.44309588 2805.59822169 1450.69921875 2807.984375 C1443.83134116 2817.37369963 1436.81976588 2826.62870762 1429.64453125 2835.78515625 C1426.77846968 2839.44662678 1423.96006943 2843.14184205 1421.15332031 2846.84887695 C1415.85449439 2853.8427913 1410.3973008 2860.63797304 1404.6796875 2867.29296875 C1402.46466555 2869.89169529 1400.31789196 2872.52577528 1398.19921875 2875.203125 C1394.66911243 2879.65726734 1391.01484748 2883.99364106 1387.33154297 2888.32080078 C1384.4531839 2891.70681395 1381.6212329 2895.12419744 1378.82421875 2898.578125 C1370.66682127 2908.58881314 1362.11931966 2918.2677129 1353.3984375 2927.7890625 C1350.87829955 2930.5553951 1348.41730987 2933.36858206 1345.9609375 2936.19140625 C1338.84470197 2944.31748451 1331.5246876 2952.26585368 1324.19921875 2960.203125 C1323.64540527 2960.80350586 1323.0915918 2961.40388672 1322.52099609 2962.02246094 C1315.75463367 2969.34654253 1308.93841017 2976.58251846 1301.796875 2983.54296875 C1299.76878641 2985.61985346 1297.8747364 2987.71372911 1295.98583984 2989.91210938 C1292.475377 2993.93772166 1288.79757733 2997.7499894 1285.015625 3001.51953125 C1284.35642563 3002.17968735 1283.69722626 3002.83984344 1283.01805115 3003.52000427 C1281.6352504 3004.90348006 1280.25120799 3006.28571583 1278.8659668 3007.66674805 C1276.76691532 3009.76044169 1274.67325935 3011.85942374 1272.58007812 3013.95898438 C1271.22558089 3015.31282071 1269.87077344 3016.66634675 1268.515625 3018.01953125 C1267.90078751 3018.63639297 1267.28595001 3019.2532547 1266.65248108 3019.8888092 C1262.90880507 3023.61273333 1259.04977889 3027.1465561 1255.03990173 3030.58262634 C1251.94488025 3033.30741828 1249.08058037 3036.25597887 1246.19921875 3039.203125 C1242.03567841 3043.46172334 1237.77445422 3047.49861057 1233.265625 3051.390625 C1229.65040431 3054.56163143 1226.18374096 3057.88997273 1222.69921875 3061.203125 C1217.87616723 3065.78897726 1213.00949627 3070.29302959 1207.98095703 3074.65332031 C1205.75056833 3076.59337341 1203.56843862 3078.58362803 1201.38671875 3080.578125 C1197.92391793 3083.70735327 1194.39242872 3086.70812849 1190.76171875 3089.640625 C1186.95834372 3092.71649088 1183.29839223 3095.89065666 1179.69921875 3099.203125 C1175.2876549 3103.25851443 1170.74733993 3107.0878624 1166.0859375 3110.8515625 C1162.89909978 3113.44760622 1159.76589468 3116.10070765 1156.63671875 3118.765625 C1152.11527735 3122.60726927 1147.54939948 3126.37767988 1142.8984375 3130.0625 C1140.87300038 3131.66878009 1138.85565457 3133.28318196 1136.84375 3134.90625 C1129.55600128 3140.77848428 1122.19633862 3146.54172412 1114.74560547 3152.20581055 C1110.3070134 3155.58208556 1105.90043695 3158.99529938 1101.51318359 3162.43798828 C1093.40251958 3168.79670665 1085.15548346 3174.91870388 1076.7734375 3180.9140625 C1072.81532616 3183.7482236 1068.89846856 3186.63478045 1064.98925781 3189.53588867 C1056.48664595 3195.84580312 1047.87821659 3201.95567763 1039.11572266 3207.8984375 C1037.23501265 3209.17875779 1035.3622746 3210.46984772 1033.4921875 3211.765625 C990.38368451 3241.6224622 945.9017973 3269.49664265 900.19921875 3295.203125 C899.09787598 3295.82396973 897.9965332 3296.44481445 896.86181641 3297.08447266 C852.31504641 3322.15645228 806.82194318 3345.93213597 760.01708984 3366.51855469 C756.74453742 3367.95882714 753.4820989 3369.42066927 750.22195435 3370.88877869 C713.46939039 3387.43473722 676.08020016 3402.44443413 638.19921875 3416.203125 C637.45057556 3416.47537903 636.70193237 3416.74763306 635.93060303 3417.02813721 C544.99863674 3450.04648136 451.74059433 3475.3089959 130.32421875 3519.890625 C128.65327652 3519.98203262 128.65327652 3519.98203262 126.94857788 3520.07528687 C96.33393587 3521.72524574 65.72957748 3522.41516892 35.07421875 3522.390625 C33.9390406 3522.39022469 33.9390406 3522.39022469 32.78092957 3522.38981628 C-75.76891504 3522.3421752 -184.36223706 3512.80723835 -521.80078125 3433.203125 C-522.69263123 3432.90835266 -523.5844812 3432.61358032 -524.50335693 3432.30987549 C-603.21888877 3406.25970394 -679.44042045 3373.86797702 -753.76635742 3337.20568848 C-756.63521389 3335.79191684 -759.50742369 3334.38499101 -762.37890625 3332.9765625 C-773.08270915 3327.70155751 -783.594662 3322.12668719 -794.04296875 3316.36328125 C-798.05323664 3314.15313188 -802.08002251 3311.97753067 -806.12109375 3309.82421875 C-818.8180762 3303.0571875 -831.3459546 3296.07561398 -843.73828125 3288.765625 C-847.88781331 3286.31804945 -852.05450673 3283.90419819 -856.23828125 3281.515625 C-870.02602164 3273.6430843 -883.59059539 3265.49357515 -896.99365234 3256.98242188 C-899.59652187 3255.33259468 -902.20684353 3253.69546537 -904.8203125 3252.0625 C-937.90762266 3231.30494079 -970.2729703 3209.25467462 -1001.80078125 3186.203125 C-1002.9602124 3185.35669434 -1002.9602124 3185.35669434 -1004.14306641 3184.49316406 C-1015.47697935 3176.21042271 -1026.6907502 3167.78354971 -1037.80078125 3159.203125 C-1038.53683594 3158.6359375 -1039.27289062 3158.06875 -1040.03125 3157.484375 C-1050.17301339 3149.6642201 -1060.18118061 3141.69924758 -1070.09521484 3133.59277344 C-1072.42196301 3131.69700324 -1074.76608432 3129.82348979 -1077.11328125 3127.953125 C-1086.81923688 3120.20453709 -1096.34757152 3112.25635683 -1105.80078125 3104.203125 C-1106.38827148 3103.70345215 -1106.97576172 3103.2037793 -1107.58105469 3102.68896484 C-1113.44573459 3097.69811908 -1119.29157673 3092.69854446 -1124.98828125 3087.515625 C-1128.39899641 3084.41344492 -1131.89811885 3081.47074226 -1135.48828125 3078.578125 C-1139.27568185 3075.51416047 -1142.77059597 3072.35212783 -1146.15625 3068.85546875 C-1147.80919728 3067.19466899 -1149.52329763 3065.66690109 -1151.30078125 3064.140625 C-1156.54376018 3059.61351435 -1161.57129115 3054.85883386 -1166.61938477 3050.1171875 C-1169.07633116 3047.81237974 -1171.5411388 3045.51753998 -1174.02514648 3043.24194336 C-1187.33898617 3030.9870138 -1200.04911745 3018.10714903 -1212.83081055 3005.3034668 C-1216.20938754 3001.91914672 -1219.59250033 2998.53940175 -1222.97692204 2995.16092777 C-1225.6134239 2992.52805308 -1228.24752294 2989.89278479 -1230.8809185 2987.25680351 C-1232.12758719 2986.00947394 -1233.37498189 2984.76286951 -1234.62315559 2983.51704597 C-1246.34517383 2971.81229818 -1246.34517383 2971.81229818 -1251.38572693 2965.83226013 C-1252.94675294 2964.03506953 -1254.60155326 2962.36952796 -1256.30078125 2960.703125 C-1259.24618855 2957.80313147 -1261.95541834 2954.76686069 -1264.65234375 2951.63671875 C-1267.47698784 2948.43716735 -1270.38844491 2945.32275092 -1273.30078125 2942.203125 C-1278.35069663 2936.78444737 -1283.29673426 2931.30536006 -1288.10791016 2925.67285156 C-1289.63012192 2923.89092354 -1291.15285099 2922.10943899 -1292.67578125 2920.328125 C-1293.19575684 2919.71928467 -1293.71573242 2919.11044434 -1294.25146484 2918.4831543 C-1297.28022901 2914.94612239 -1300.35257588 2911.45886015 -1303.48828125 2908.015625 C-1307.28585374 2903.82943199 -1310.87144069 2899.50293486 -1314.42578125 2895.109375 C-1316.96743294 2891.99919596 -1319.56678979 2888.94416913 -1322.17578125 2885.890625 C-1326.40360688 2880.92790877 -1330.46724287 2875.85912966 -1334.46655273 2870.71118164 C-1338.13413395 2866.00695592 -1341.92323908 2861.41314705 -1345.73828125 2856.828125 C-1350.7593973 2850.77731581 -1355.57998642 2844.61761265 -1360.25708008 2838.29785156 C-1364.06406649 2833.15794679 -1367.97818304 2828.11060807 -1371.92578125 2823.078125 C-1377.30539291 2816.20041209 -1382.45935196 2809.20564704 -1387.48193359 2802.06494141 C-1390.01727918 2798.48579564 -1392.60147219 2794.94178734 -1395.17578125 2791.390625 C-1414.84053717 2764.20334249 -1433.73298247 2736.47849235 -1451.80078125 2708.203125 C-1452.47125488 2707.15705078 -1452.47125488 2707.15705078 -1453.15527344 2706.08984375 C-1481.77409559 2661.37922787 -1507.90496741 2615.14736714 -1532.33007812 2568.02685547 C-1533.77233047 2565.25775011 -1535.2292369 2562.49691403 -1536.69140625 2559.73828125 C-1550.79425565 2533.07404567 -1563.54754831 2505.75872808 -1575.80078125 2478.203125 C-1576.11297607 2477.50201599 -1576.4251709 2476.80090698 -1576.74682617 2476.07855225 C-1616.06869765 2387.68040901 -1647.94836289 2295.90956548 -1692.80078125 2112.203125 C-1692.98642639 2111.29552429 -1693.17207153 2110.38792358 -1693.36334229 2109.45281982 C-1712.83444736 2013.92346503 -1725.06377234 1915.42518449 -1726.96875 1793.8046875 C-1726.97198052 1791.23058048 -1726.97534577 1788.65647362 -1726.97883606 1786.08236694 C-1726.98477273 1780.71571347 -1726.98672572 1775.34907796 -1726.98608398 1769.98242188 C-1726.98555419 1764.57842006 -1726.99255648 1759.17449111 -1727.0065918 1753.77050781 C-1727.08656033 1722.24006158 -1726.8541135 1690.81433597 -1724.93075943 1659.33618927 C-1724.80778897 1657.31812833 -1724.68944488 1655.29978702 -1724.57138062 1653.28143311 C-1724.12579115 1645.70877181 -1723.61458997 1638.14285273 -1723.05078125 1630.578125 C-1722.96807983 1629.45588531 -1722.88537842 1628.33364563 -1722.8001709 1627.17739868 C-1715.54715182 1529.7117877 -1700.03351937 1433.12155108 -1676.80078125 1338.203125 C-1676.57990845 1337.29771973 -1676.35903564 1336.39231445 -1676.13146973 1335.45947266 C-1654.61275486 1247.35222396 -1625.55842471 1161.16438592 -1516.16308594 922.65429688 C-1514.72212132 920.06159352 -1513.30924134 917.45508689 -1511.90234375 914.84375 C-1505.10631899 902.23632316 -1498.00283688 889.83422758 -1490.73388672 877.49414062 C-1488.66418503 873.97057675 -1486.60829357 870.43920577 -1484.5546875 866.90625 C-1477.49689138 854.77624343 -1470.3850884 842.70294061 -1462.80078125 830.89160156 C-1460.8877811 827.90927709 -1458.98890317 824.91902345 -1457.1081543 821.91625977 C-1450.14525664 810.80155242 -1442.98877906 799.8286894 -1435.70166016 788.92407227 C-1433.93046199 786.27263195 -1432.16422687 783.61793525 -1430.3984375 780.96289062 C-1418.77722797 763.52389214 -1406.73610375 746.39888635 -1394.42285156 729.44287109 C-1392.75857131 727.14484174 -1391.10281583 724.84088287 -1389.44921875 722.53515625 C-1383.05575643 713.62737957 -1376.53782186 704.85397189 -1369.80078125 696.203125 C-1368.21632553 694.14148711 -1366.63301883 692.07896572 -1365.05078125 690.015625 C-1347.02769118 666.58127022 -1347.02769118 666.58127022 -1339.1328125 657.03125 C-1336.77343914 654.16996639 -1334.43910835 651.28964304 -1332.10717773 648.40600586 C-1326.20851376 641.11639803 -1320.22351633 633.9104589 -1314.13916016 626.77539062 C-1312.33041294 624.65055807 -1310.53090491 622.51799058 -1308.73120117 620.38549805 C-1306.89662943 618.21302196 -1305.05809099 616.04392704 -1303.21875 613.87548828 C-1302.2596419 612.7443088 -1301.30133011 611.61245373 -1300.34375 610.47998047 C-1293.88826772 602.8513548 -1287.28327866 595.40299971 -1280.47265625 588.08984375 C-1278.35525896 585.80218791 -1276.2784764 583.49656463 -1274.23828125 581.140625 C-1270.02740484 576.27879185 -1265.65978268 571.56105067 -1261.30078125 566.83251953 C-1259.76647778 565.16586241 -1258.23645958 563.49534977 -1256.70703125 561.82421875 C-1251.81027556 556.48356453 -1246.88048368 551.22099291 -1241.70863342 546.14341736 C-1239.96757645 544.3727563 -1238.35631096 542.55603203 -1236.75170898 540.66235352 C-1232.04861509 535.25517343 -1226.96857881 530.22647242 -1221.8984375 525.16796875 C-1220.85128989 524.12014554 -1219.80429059 523.0721741 -1218.75743103 522.02406311 C-1216.57468799 519.83985512 -1214.390171 517.65744168 -1212.2043457 515.47631836 C-1209.42291701 512.70058619 -1206.64600349 509.92038718 -1203.87041569 507.13881588 C-1201.71277104 504.97753297 -1199.55271978 502.81866786 -1197.39196587 500.66049385 C-1196.36792355 499.63711179 -1195.34460451 498.61300539 -1194.32206917 497.5881176 C-1189.16690334 492.42369265 -1183.98468054 487.34086213 -1178.42527771 482.60743713 C-1176.09330841 480.59154307 -1173.95023824 478.41067542 -1171.80078125 476.203125 C-1168.37771334 472.74380675 -1164.89119522 469.47394754 -1161.1953125 466.3125 C-1157.82968528 463.34767341 -1154.57096894 460.27246966 -1151.30078125 457.203125 C-1146.82148205 453.00330344 -1142.33222385 448.83617046 -1137.67578125 444.83203125 C-1135.41326944 442.86647411 -1133.20387442 440.84639191 -1130.98828125 438.828125 C-1126.61792441 434.87941055 -1122.09775046 431.1568529 -1117.51953125 427.453125 C-1114.87930396 425.26810931 -1112.33348405 423.01141109 -1109.80078125 420.703125 C-1105.55911099 416.8422031 -1101.18044198 413.19762797 -1096.72265625 409.58984375 C-1093.52666768 406.97921672 -1090.38019318 404.31577534 -1087.23828125 401.640625 C-1082.7217625 397.80326221 -1078.16084681 394.03701408 -1073.515625 390.35546875 C-1071.43906273 388.70915823 -1069.36954955 387.05541062 -1067.3046875 385.39453125 C-1060.25222442 379.72495783 -1053.15803166 374.12010417 -1045.96875 368.625 C-1043.3343241 366.61101226 -1040.70746787 364.58770096 -1038.08374023 362.55981445 C-1024.93328119 352.40770031 -1011.58380476 342.54572729 -998.09179688 332.85302734 C-995.7977208 331.20092098 -993.50935507 329.54120545 -991.22265625 327.87890625 C-990.46065918 327.32581787 -989.69866211 326.77272949 -988.91357422 326.20288086 C-987.5052986 325.1803984 -986.09793788 324.15665347 -984.69189453 323.13110352 C-970.95335293 313.17273241 -956.79427097 303.79728058 -942.67578125 294.390625 C-941.82083069 293.8207486 -940.96588013 293.25087219 -940.08502197 292.66372681 C-927.09318805 284.00881968 -914.04863839 275.46254171 -900.80078125 267.203125 C-899.122394 266.14974251 -897.44400861 265.09635704 -895.765625 264.04296875 C-868.94140559 247.26953679 -841.53461908 231.42075378 -813.80078125 216.203125 C-812.47385254 215.47488525 -812.47385254 215.47488525 -811.12011719 214.73193359 C-795.13906666 205.97961732 -779.03483928 197.4763524 -762.80078125 189.203125 C-762.06500854 188.8280481 -761.32923584 188.45297119 -760.57116699 188.06652832 C-738.47248782 176.81236833 -716.24952836 165.96927888 -693.58837891 155.89404297 C-689.96538954 154.28093937 -686.35672467 152.63746028 -682.75 150.98828125 C-596.56319345 111.6922415 -506.27836547 80.85958503 -400.80078125 53.203125 C-399.95507568 52.98483032 -399.10937012 52.76653564 -398.23803711 52.54162598 C-292.53710984 25.32221441 -184.16628661 9.6233441 -54.10660744 1.30858994 C-52.49144393 1.23471485 -50.87633432 1.15965623 -49.26126671 1.08371353 C-32.83592705 0.32224062 -16.44179059 0.02615439 0 0 Z " fill="#1A2024" transform="translate(1726.80078125,-0.203125)"/>
<path d="M0 0 C4.8466362 0.01139356 9.6930527 0.00460701 14.53968143 -0.00687504 C43.80820844 -0.06577009 72.77204821 0.93888898 101.88134766 4.19824219 C103.49826045 4.37430433 105.11520452 4.55007956 106.73217773 4.72558594 C118.03214871 5.96230132 129.31874719 7.28777863 140.57519531 8.87646484 C143.47115028 9.28207377 146.36947211 9.66744913 149.26806641 10.05371094 C177.03821584 13.85734084 204.54983724 19.50585997 231.81884766 25.94824219 C232.5849234 26.12833832 233.35099915 26.30843445 234.14028931 26.49398804 C244.32965353 28.90187197 254.37774116 31.65815949 264.39976501 34.68592834 C267.55343429 35.63053214 270.7180436 36.53646887 273.88134766 37.44824219 C277.03034579 38.37520693 280.17433571 39.31868218 283.31884766 40.26074219 C284.3782959 40.57575684 285.43774414 40.89077148 286.52929688 41.21533203 C317.68596787 50.53092279 348.4117563 61.47312143 378.31884766 74.26074219 C376.79056596 79.30094676 374.67986551 83.86502391 372.35400391 88.56933594 C371.9649588 89.36405807 371.5759137 90.15878021 371.17507935 90.97758484 C370.34412174 92.67410522 369.51149451 94.36980867 368.67733765 96.0647583 C366.93031111 99.61475967 365.19140654 103.16871588 363.45228577 106.72259521 C362.58966261 108.48535615 361.7266581 110.24793051 360.86326599 112.01031494 C357.70873272 118.45212868 354.58881815 124.90908397 351.50634766 131.38574219 C347.49140859 139.81539977 343.44439344 148.22918557 339.38134766 156.63574219 C335.0147294 165.67145914 330.65758955 174.71159439 326.31884766 183.76074219 C322.03995875 192.68359101 317.74727407 201.59970571 313.44384766 210.51074219 C313.00640228 211.41657043 313.00640228 211.41657043 312.56011963 212.34069824 C310.1816139 217.26562351 307.80236782 222.19019104 305.4230957 227.11474609 C303.34633694 231.41324596 301.26986535 235.71188436 299.19384766 240.01074219 C298.90205627 240.61494995 298.61026489 241.21915771 298.30963135 241.8416748 C294.30135922 250.14260003 290.30474307 258.44904823 286.31884766 266.76074219 C282.03988759 275.68355699 277.74727415 284.59970553 273.44384766 293.51074219 C273.15221741 294.11462769 272.86058716 294.71851318 272.56011963 295.34069824 C270.1816139 300.26562351 267.80236782 305.19019104 265.4230957 310.11474609 C263.34633694 314.41324596 261.26986535 318.71188436 259.19384766 323.01074219 C258.75616058 323.91705383 258.75616058 323.91705383 258.30963135 324.8416748 C253.81142971 334.15721883 249.33006323 343.480753 244.85742188 352.80859375 C240.72706253 361.41908816 236.576044 370.0195308 232.42132568 378.61828613 C228.41549058 386.90940148 224.4228384 395.20670274 220.44384766 403.51074219 C215.74431392 413.31687467 211.00530089 423.10348721 206.25634766 432.88574219 C201.27134222 443.15437513 196.30893196 453.43291708 191.39404297 463.73535156 C186.32624245 474.35324142 181.20380812 484.94473674 176.08432007 495.5377655 C172.85110265 502.22782894 169.6210394 508.91941422 166.39102173 515.61102295 C164.89050689 518.71957413 163.38982697 521.82804562 161.88916016 524.93652344 C161.39174316 525.96688721 160.89432617 526.99725098 160.38183594 528.05883789 C160.0310498 528.78546631 159.68026367 529.51209473 159.31884766 530.26074219 C152.12940495 528.79136704 145.24456884 526.73500666 138.25634766 524.51074219 C114.25507386 517.0600338 90.31613748 512.12193601 65.46881104 508.5692749 C63.51089582 508.28830226 61.55420098 507.99885853 59.59765625 507.70849609 C24.88126262 502.73203402 -12.902258 502.89683037 -47.68115234 507.26074219 C-48.92880371 507.41671875 -50.17645508 507.57269531 -51.46191406 507.73339844 C-122.85925246 516.89895359 -192.46805351 541.97931549 -251.68115234 583.26074219 C-252.26799805 583.6688916 -252.85484375 584.07704102 -253.45947266 584.49755859 C-268.65806268 595.11172378 -283.41024282 606.41062875 -297.09912109 618.92480469 C-298.49334732 620.18614702 -299.89346362 621.44166886 -301.32446289 622.66113281 C-307.31580012 627.78344996 -312.90172903 633.29518695 -318.47143555 638.86572266 C-320.10691116 640.49901667 -321.75022942 642.12412689 -323.39404297 643.74902344 C-329.15868272 649.48312565 -334.54900249 655.32546017 -339.61621094 661.69946289 C-341.6002545 664.1603994 -343.66346137 666.50939816 -345.78662109 668.85058594 C-349.79498621 673.31501041 -353.42120988 678.00614556 -356.99365234 682.82324219 C-357.64462891 683.69819336 -358.29560547 684.57314453 -358.96630859 685.47460938 C-364.73989335 693.2740632 -370.35423636 701.14930195 -375.68115234 709.26074219 C-376.23738281 710.10491699 -376.79361328 710.9490918 -377.36669922 711.81884766 C-413.32151872 766.79536728 -435.86449117 828.90307908 -445.86865234 893.69824219 C-446.02350098 894.67116211 -446.17834961 895.64408203 -446.33789062 896.64648438 C-449.45121709 917.79271265 -449.97449748 939.09852305 -449.91493225 960.43421936 C-449.91508747 963.0771319 -449.91604536 965.72003337 -449.91796821 968.36294413 C-449.92054584 974.06961669 -449.91583796 979.77624502 -449.90609646 985.48290932 C-449.89160419 994.00115726 -449.88897056 1002.51938201 -449.88858229 1011.03764084 C-449.88761605 1025.48511535 -449.87745522 1039.93256953 -449.86218452 1054.3800354 C-449.84692707 1068.87626138 -449.83633208 1083.37248006 -449.83146477 1097.86871338 C-449.83115777 1098.78145341 -449.83085078 1099.69419344 -449.83053449 1100.63459226 C-449.82900257 1105.28187517 -449.82756439 1109.92915811 -449.82617246 1114.57644106 C-449.8233084 1124.06757706 -449.81984601 1133.55871283 -449.8161993 1143.04984856 C-449.81583394 1144.00296265 -449.81546858 1144.95607674 -449.81509214 1145.93807308 C-449.80658685 1167.7437888 -449.79194875 1189.54949978 -449.77698431 1211.35521186 C-449.72468911 1287.67365022 -449.70531353 1363.99210024 -449.68906585 1440.31055367 C-449.68689155 1450.48739232 -449.6845969 1460.66423091 -449.68199015 1470.84106946 C-449.65903213 1560.49459415 -449.64804191 1650.14799143 -449.89599609 1793.47949219 C-449.89737915 1794.1615312 -449.89876221 1794.84357022 -449.90018718 1795.54627709 C-449.97646868 1833.08513314 -450.06593814 1870.62395464 -450.16272497 1908.16276312 C-450.18127246 1915.35812806 -450.19954542 1922.55349369 -450.21779251 1929.74885941 C-450.35790883 1984.91952989 -450.50930757 2040.09016107 -450.68115234 2095.26074219 C-452.89271747 2094.80020426 -455.10350441 2094.3359285 -457.31396484 2093.87011719 C-459.16078857 2093.48291504 -459.16078857 2093.48291504 -461.04492188 2093.08789062 C-465.37256265 2092.10346422 -469.55316106 2090.83048365 -473.77880859 2089.48339844 C-478.82399891 2087.88284597 -483.91089115 2086.42406544 -488.99365234 2084.94824219 C-490.02538574 2084.64821289 -491.05711914 2084.34818359 -492.12011719 2084.0390625 C-494.24796259 2083.4204457 -496.37589324 2082.80212202 -498.50390625 2082.18408203 C-503.56412501 2080.71353129 -508.62257808 2079.23693783 -513.68115234 2077.76074219 C-515.68114322 2077.17737758 -517.68114324 2076.5940443 -519.68115234 2076.01074219 C-531.68115234 2072.51074219 -543.68115234 2069.01074219 -555.68115234 2065.51074219 C-556.67155518 2065.22191162 -557.66195801 2064.93308105 -558.68237305 2064.63549805 C-560.67838431 2064.05325362 -562.67431559 2063.47073495 -564.67016602 2062.88793945 C-569.73056663 2061.41066425 -574.79235358 2059.93847377 -579.85693359 2058.47558594 C-589.0414681 2055.81782492 -598.20445236 2053.12838626 -607.30615234 2050.19824219 C-614.85963527 2047.77107981 -622.47069811 2045.63914278 -630.13208008 2043.58081055 C-644.28254379 2039.77073802 -658.35507508 2035.68483546 -672.30615234 2031.19824219 C-679.85972617 2028.77133653 -687.47068276 2026.6391469 -695.13208008 2024.58081055 C-709.28254379 2020.77073802 -723.35507508 2016.68483546 -737.30615234 2012.19824219 C-744.86324936 2009.77020456 -752.47754277 2007.63597399 -760.14306641 2005.57861328 C-770.01579803 2002.92241923 -779.81965089 2000.04307051 -789.62695312 1997.15625 C-792.70412293 1996.25400709 -795.78392252 1995.36136047 -798.86474609 1994.47167969 C-808.04714104 1991.81668744 -817.20714905 1989.1275181 -826.30615234 1986.19824219 C-833.85963527 1983.77107981 -841.47069811 1981.63914278 -849.13208008 1979.58081055 C-863.28254379 1975.77073802 -877.35507508 1971.68483546 -891.30615234 1967.19824219 C-898.85175883 1964.77389637 -906.45451695 1962.64331385 -914.10791016 1960.58740234 C-921.27929732 1958.65664426 -928.42355135 1956.64268871 -935.55615234 1954.57324219 C-936.54832764 1954.28779541 -937.54050293 1954.00234863 -938.56274414 1953.70825195 C-939.50674072 1953.43295654 -940.4507373 1953.15766113 -941.42333984 1952.87402344 C-942.24688965 1952.63466064 -943.07043945 1952.39529785 -943.91894531 1952.14868164 C-946.26307946 1951.39513595 -948.55113538 1950.57430243 -950.85379028 1949.70524597 C-951.57136568 1949.43482074 -952.28894108 1949.1643955 -953.02826118 1948.88577557 C-953.57371527 1948.67951455 -954.11916935 1948.47325354 -954.68115234 1948.26074219 C-954.72765174 1860.63778107 -954.77319611 1773.01481709 -954.80818176 1657.33352661 C-954.80860011 1655.88178861 -954.80901847 1654.43005062 -954.80943683 1652.97831262 C-954.81820705 1622.49825209 -954.82635696 1592.01819141 -954.83379138 1561.53813053 C-954.83752723 1546.22437164 -954.84138214 1530.91061278 -954.84534967 1515.59685396 C-954.84594742 1513.2869968 -954.84654177 1510.97713965 -954.84713598 1508.6672825 C-954.85630348 1473.1471232 -954.86800628 1437.62696698 -954.887146 1402.10681152 C-954.88755669 1401.34453541 -954.88796739 1400.58225929 -954.88839053 1399.7968839 C-954.89502669 1387.50867951 -954.90187789 1375.22047524 -954.90875767 1362.93227099 C-954.92859811 1327.48871825 -954.9468183 1292.04516793 -954.95457172 1256.60161018 C-954.95473233 1255.87095674 -954.95489293 1255.14030329 -954.95505841 1254.38750883 C-954.95855772 1238.33827496 -954.96124135 1222.28904106 -954.96315529 1206.23980692 C-954.96394003 1199.77969472 -954.96484191 1193.31958254 -954.96578407 1186.85947037 C-954.96588435 1186.1524902 -954.96598464 1185.44551004 -954.96608796 1184.71710623 C-954.96936377 1162.03205151 -954.98213065 1139.3470146 -954.99999897 1116.66196705 C-955.01849472 1093.1226189 -955.02616997 1069.58329638 -955.02165648 1046.04393934 C-955.01938948 1032.50514163 -955.02532459 1018.96640839 -955.04354497 1005.42762242 C-955.05492434 996.34433081 -955.05505389 987.26108065 -955.04664778 978.17778599 C-955.04218551 973.02751569 -955.04202817 967.87736587 -955.05580189 962.7271093 C-955.14658078 926.66770011 -953.50835769 890.66206276 -949.36865234 854.82324219 C-949.26510437 853.90022308 -949.1615564 852.97720398 -949.05487061 852.0262146 C-945.58543775 821.17195146 -940.59427764 790.64701476 -934.112854 760.2857666 C-933.69421714 758.32202647 -933.28014018 756.35731595 -932.86621094 754.39257812 C-929.40493347 738.0705908 -925.37147224 721.93713982 -921.05615234 705.82324219 C-920.82617554 704.96269226 -920.59619873 704.10214233 -920.35925293 703.21551514 C-916.0459095 687.12971223 -911.09009357 671.300434 -905.82397461 655.50390625 C-905.11228854 653.36663094 -904.40545925 651.2277861 -903.69873047 649.08886719 C-901.53309953 642.5650964 -899.30469821 636.09727315 -896.68481445 629.73876953 C-895.51246632 626.84425883 -894.42501937 623.92395879 -893.34130859 620.99511719 C-876.82227771 576.48070972 -856.86933347 532.92765065 -833.13476562 491.80517578 C-831.39260435 488.75566205 -829.71180586 485.6757043 -828.03564453 482.58959961 C-803.40348065 437.39112485 -772.72836609 394.84889925 -740.16943359 355.08105469 C-738.86705856 353.48812354 -737.57049202 351.89044699 -736.27490234 350.29199219 C-727.78043446 339.82779262 -719.00698508 329.62183948 -709.89599609 319.69042969 C-708.04108417 317.65558804 -706.22686436 315.59752972 -704.43115234 313.51074219 C-693.84545145 301.3733384 -682.50953975 289.92714948 -671.11083984 278.56005859 C-668.78413789 276.23877904 -666.46291406 273.91211556 -664.14208984 271.58496094 C-662.63720247 270.08073352 -661.13200537 268.57681588 -659.62646484 267.07324219 C-658.94609161 266.39084473 -658.26571838 265.70844727 -657.56472778 265.00537109 C-653.66439321 261.1238086 -649.6632411 257.41733165 -645.48942566 253.8309021 C-642.5368529 251.26712408 -639.71254366 248.56862752 -636.86865234 245.88574219 C-631.8220429 241.15877843 -626.64781086 236.68565075 -621.24755859 232.36230469 C-618.70555871 230.28072792 -616.28585899 228.11035839 -613.86865234 225.88574219 C-609.49414408 221.90390632 -604.9358616 218.24332136 -600.26464844 214.62182617 C-596.44791567 211.66021674 -592.68883983 208.64102261 -588.96118164 205.56811523 C-579.47110531 197.7549056 -569.64695455 190.45337695 -559.68115234 183.26074219 C-559.03227051 182.78910645 -558.38338867 182.3174707 -557.71484375 181.83154297 C-535.44146716 165.66944238 -512.3126773 150.35673953 -488.68115234 136.26074219 C-487.75109375 135.70515625 -486.82103516 135.14957031 -485.86279297 134.57714844 C-471.01334493 125.74029997 -455.94161734 117.36411155 -440.68115234 109.26074219 C-439.6418457 108.70418945 -438.60253906 108.14763672 -437.53173828 107.57421875 C-418.93683643 97.63311995 -399.9618984 88.76998526 -380.68115234 80.26074219 C-379.74598785 79.846651 -379.74598785 79.846651 -378.79193115 79.42419434 C-351.83631163 67.48912532 -324.4054471 57.28329754 -296.39857483 48.14445496 C-292.48400628 46.86385897 -288.58644168 45.54408525 -284.70068359 44.17871094 C-256.19630407 34.21684266 -226.68686354 27.12939774 -197.14941406 20.98974609 C-193.02507782 20.12284 -188.91280743 19.20794854 -184.80249023 18.27709961 C-164.69992337 13.83298487 -144.48851442 10.67317349 -124.05615234 8.19824219 C-121.93570332 7.93820257 -119.81526069 7.67811077 -117.69482422 7.41796875 C-111.69185308 6.68533898 -105.68716306 5.96799791 -99.68115234 5.26074219 C-98.90421021 5.16923889 -98.12726807 5.0777356 -97.32678223 4.98345947 C-64.86310506 1.18302729 -32.6537666 -0.07747991 0 0 Z " fill="#FEFEFE" transform="translate(1901.68115234375,370.7392578125)"/>
<path d="M0 0 C2.34652227 10.91027429 4.05445873 21.80550974 5.4375 32.875 C5.54260895 33.70681793 5.6477179 34.53863586 5.75601196 35.3956604 C7.40249925 48.47534061 8.8701739 61.57073943 10.1875 74.6875 C10.26604218 75.4466571 10.34458435 76.20581421 10.42550659 76.98797607 C13.36995059 105.70263996 14.34618674 134.5049569 14.26074219 163.35449219 C14.24934893 167.22555559 14.25614944 171.0963436 14.26762581 174.96739769 C14.48006393 259.83255942 3.69434642 347.06536584 -24.26708984 439.67480469 C-25.19892087 442.63108673 -26.09948503 445.59654856 -27 448.5625 C-27.66531092 450.70875407 -28.33214211 452.85453712 -29 455 C-29.33088623 456.07628662 -29.33088623 456.07628662 -29.66845703 457.17431641 C-40.80632962 493.33024119 -54.35460922 528.55941792 -70 563 C-70.51755859 564.14339844 -71.03511719 565.28679688 -71.56835938 566.46484375 C-83.557303 592.84911394 -96.46901133 618.91421941 -111 644 C-111.48887695 644.84498047 -111.97775391 645.68996094 -112.48144531 646.56054688 C-129.53472761 675.92950631 -148.12961202 704.45608821 -168 732 C-171.12151233 731.40571044 -172.97084717 730.47912631 -175.3984375 728.4453125 C-176.03523438 727.91873047 -176.67203125 727.39214844 -177.328125 726.84960938 C-178.34132813 725.99592773 -178.34132813 725.99592773 -179.375 725.125 C-180.81949294 723.92869721 -182.26481983 722.73340076 -183.7109375 721.5390625 C-184.4337793 720.9399707 -185.15662109 720.34087891 -185.90136719 719.72363281 C-188.89509251 717.26484957 -191.94244636 714.87858843 -195 712.5 C-200.07319064 708.5417644 -205.07985268 704.50903467 -210.0625 700.4375 C-214.82173946 696.55018227 -219.61374347 692.72660109 -224.5 689 C-230.08673958 684.73916153 -235.54244247 680.33541385 -240.98388672 675.89111328 C-247.58671505 670.50463711 -254.28308592 665.24303122 -261 660 C-269.07892496 653.693822 -277.09211903 647.31876609 -285.03417969 640.84082031 C-291.62299573 635.47486814 -298.30185136 630.22838345 -305 625 C-313.07972859 618.69319471 -321.09429089 612.31816934 -329.03637695 605.83862305 C-333.90962985 601.86906645 -338.82968768 597.96497145 -343.78125 594.09375 C-348.68317014 590.25891452 -353.54259318 586.37277659 -358.39697266 582.47802734 C-362.55584469 579.14512214 -366.73874287 575.84495872 -370.9375 572.5625 C-375.94774443 568.64512972 -380.89113974 564.65331342 -385.8125 560.625 C-391.2729349 556.15833253 -396.81214025 551.81931944 -402.4375 547.5625 C-409.03897174 542.56409145 -415.46189858 537.3845446 -421.83129883 532.09448242 C-426.77109529 527.9959888 -431.77250208 523.99085899 -436.83276367 520.04248047 C-441.0813168 516.72704067 -445.29705855 513.37305097 -449.5 510 C-454.28937367 506.15728415 -459.09994261 502.34435305 -463.9375 498.5625 C-468.94774443 494.64512972 -473.89113974 490.65331342 -478.8125 486.625 C-484.2729349 482.15833253 -489.81214025 477.81931944 -495.4375 473.5625 C-502.03815846 468.56470723 -508.45995264 463.38542578 -514.82910156 458.09667969 C-521.45360036 452.60132195 -528.20878968 447.28684068 -535 442 C-545.10063577 434.12144623 -555.07931157 426.10404289 -565 418 C-563.43668341 413.53944995 -561.04997676 409.75660699 -558.5 405.8125 C-531.00241324 362.44264785 -511.54851373 313.22837405 -501 263 C-500.80116211 262.08653809 -500.60232422 261.17307617 -500.39746094 260.23193359 C-495.09298786 235.71604281 -491.82121905 210.16043082 -491.8671875 185.078125 C-491.86575241 183.30172638 -491.86575241 183.30172638 -491.86428833 181.48944092 C-491.8636128 179.00207465 -491.86542291 176.51470655 -491.86962891 174.02734375 C-491.87496673 170.27339603 -491.8696722 166.51956898 -491.86328125 162.765625 C-491.85967167 150.13569533 -492.03448162 137.59550677 -493 125 C-493.09663591 123.62922151 -493.19223122 122.25836932 -493.28686523 120.88745117 C-493.51689733 117.59100363 -493.75454768 114.29532791 -494 111 C-484.78449241 108.62202429 -475.51761349 106.51225567 -466.22961426 104.44180298 C-452.20975518 101.31586249 -438.20373514 98.13529688 -424.21231079 94.88452148 C-411.20763497 91.86339434 -398.19446523 88.92477929 -385.13183594 86.1628418 C-375.44776929 84.11157528 -365.79283157 81.94148601 -356.14013672 79.74780273 C-349.06906276 78.14149332 -341.99495463 76.55081093 -334.9140625 74.98828125 C-334.1491449 74.81942413 -333.38422729 74.65056702 -332.59613037 74.47659302 C-331.82964172 74.30739349 -331.06315308 74.13819397 -330.2734375 73.96386719 C-318.49114113 71.36283001 -306.72255125 68.73621612 -295 65.875 C-285.43998259 63.54357323 -275.84563974 61.42989269 -266.21948242 59.39013672 C-256.40613688 57.30898557 -246.60600993 55.1724954 -236.8125 53 C-236.0417514 52.82907837 -235.27100281 52.65815674 -234.47689819 52.48205566 C-224.96217675 50.3683673 -215.46946803 48.18443921 -206 45.875 C-196.43924555 43.54360247 -186.84441514 41.42880713 -177.21728516 39.39013672 C-152.02907012 34.05093739 -126.92334056 28.33567794 -101.84637451 22.49871826 C-83.65951307 18.26612378 -65.47748442 14.0415412 -47.20776367 10.17895508 C-38.10189872 8.25018632 -29.01727812 6.23487513 -19.9375 4.1875 C-19.25494141 4.03416199 -18.57238281 3.88082397 -17.86914062 3.72283936 C-15.94231185 3.28964228 -14.01606406 2.85386342 -12.08984375 2.41796875 C-10.43263306 2.04321411 -10.43263306 2.04321411 -8.74194336 1.66088867 C-1.85112671 0 -1.85112671 0 0 0 Z " fill="#6DC1ED" transform="translate(2852,1162)"/>
<path d="M0 0 C24.9380691 9.02758102 48.55807837 26.79145055 70.50976562 41.34863281 C72.72680177 42.81883208 74.94828261 44.28193412 77.171875 45.7421875 C103.24347474 62.9179393 128.03560176 81.78991157 152.20019531 101.53222656 C153.77310294 102.81496132 155.35098284 104.09159413 156.9296875 105.3671875 C168.31228968 114.58810855 179.29698443 124.24462792 190.01171875 134.23046875 C192.68067563 136.71530085 195.39634902 139.14323937 198.125 141.5625 C201.74638946 144.80176233 205.21115747 148.16953954 208.625 151.625 C212.30533761 155.34668972 216.06311627 158.85827345 220.03515625 162.26171875 C225.13167504 166.77056738 229.89226566 171.64125497 234.3125 176.8125 C237.37503018 180.38902125 240.65304188 183.69362041 244 187 C247.88373419 190.84151969 251.62554802 194.72372796 255.16796875 198.88671875 C257.04894563 201.05645967 258.98928109 203.16470243 260.94287109 205.26904297 C265.70328977 210.39951805 270.23848482 215.64289024 274.62890625 221.09765625 C277.31831577 224.38963528 280.09181954 227.59994494 282.875 230.8125 C288.28625049 237.08534932 293.43991422 243.52625651 298.5078125 250.078125 C300.11074785 252.14263859 301.72632058 254.19682476 303.34375 256.25 C321.42610286 279.25404237 338.41707177 303.23210236 354 328 C354.49532227 328.78487793 354.99064453 329.56975586 355.50097656 330.37841797 C368.78026013 351.47074611 381.28718303 372.99959821 393 395 C393.53560547 396.00272949 394.07121094 397.00545898 394.62304688 398.03857422 C408.39093212 423.90757914 420.81022646 450.31884551 432.0625 477.375 C432.58694199 478.63114105 432.58694199 478.63114105 433.12197876 479.91265869 C437.63040802 490.74446574 441.73496462 501.6629956 445.52807617 512.765625 C446.93030672 516.8537431 448.51345166 520.84788124 450.16796875 524.83984375 C451.41259512 528.07119765 452.33155648 531.38540584 453.2890625 534.7109375 C454.07185429 537.23135501 455.11385706 539.59179658 456.1940918 541.99731445 C457.23160212 544.57553232 458.0251156 547.19597226 458.83203125 549.85546875 C459.3590564 551.5883313 459.3590564 551.5883313 459.89672852 553.35620117 C460.26080811 554.55865479 460.6248877 555.7611084 461 557 C461.53161743 558.73697144 461.53161743 558.73697144 462.07397461 560.5090332 C463.1416521 564.00336151 464.19686853 567.50126324 465.25 571 C465.79527344 572.78083984 465.79527344 572.78083984 466.3515625 574.59765625 C466.69445313 575.74105469 467.03734375 576.88445313 467.390625 578.0625 C467.70032227 579.08472656 468.01001953 580.10695313 468.32910156 581.16015625 C468.97448842 583.89201214 469.13198168 586.20660143 469 589 C445.96581798 594.66392918 422.81473443 599.78381256 399.63671875 604.8203125 C396.96610982 605.40087616 394.29553928 605.98161604 391.625 606.5625 C390.96783997 606.70534424 390.31067993 606.84818848 389.63360596 606.99536133 C378.94226492 609.3222365 368.28777152 611.79034197 357.63916016 614.30493164 C346.82831802 616.84165226 335.98026341 619.18483748 325.12213135 621.50897217 C313.39371674 624.02175112 301.70666189 626.66820135 290.03295898 629.42578125 C281.0611599 631.53806356 272.06938101 633.54434052 263.0625 635.5 C244.23992642 639.58980321 225.44557781 643.80056374 206.68359375 648.16015625 C203.41411742 648.91950759 200.14459366 649.67865402 196.875 650.4375 C196.05684814 650.6274353 195.23869629 650.81737061 194.39575195 651.01306152 C181.49172016 654.0047217 168.5613524 656.85254649 155.60824585 659.62322998 C144.05021523 662.09719685 132.53447082 664.7089426 121.03076172 667.42626953 C112.05970903 669.53844751 103.06864728 671.54449984 94.0625 673.5 C72.59609818 678.16425904 51.17667021 683.02704732 29.77490234 687.97860718 C23.27010245 689.48286574 16.76418441 690.98227233 10.25787354 692.47998047 C8.78248774 692.81978224 7.30718304 693.15993635 5.83197021 693.50048828 C1.36928125 694.53068943 -3.09580097 695.54978831 -7.5625 696.5625 C-8.64950195 696.81394775 -9.73650391 697.06539551 -10.85644531 697.32446289 C-11.85385742 697.5486792 -12.85126953 697.77289551 -13.87890625 698.00390625 C-14.7304126 698.19799072 -15.58191895 698.3920752 -16.45922852 698.59204102 C-19.33922782 699.05446812 -22.08796123 699.0676478 -25 699 C-25.28609131 698.22624023 -25.57218262 697.45248047 -25.86694336 696.65527344 C-36.44388807 668.14883432 -48.1846641 640.06601657 -64 614 C-64.53109375 613.12085938 -65.0621875 612.24171875 -65.609375 611.3359375 C-73.08779729 599.01279816 -80.79165965 587.0589853 -89.67724609 575.70361328 C-91.72612478 573.06480274 -93.7011641 570.37368481 -95.6875 567.6875 C-101.97243451 559.31891153 -108.60263552 551.30631249 -115.6640625 543.58203125 C-116.92369223 542.18969806 -118.17743051 540.79136608 -119.39379883 539.36108398 C-124.55632859 533.31440315 -130.14112247 527.70696294 -135.76977539 522.09985352 C-137.43426277 520.4407268 -139.09333447 518.77631949 -140.75195312 517.11132812 C-146.32730882 511.53180414 -151.95190609 506.07100064 -158 501 C-158.93984741 500.20009644 -158.93984741 500.20009644 -159.89868164 499.3840332 C-178.40666485 483.7040156 -197.98542619 469.16372978 -219 457 C-218.45617269 451.28751375 -216.2265074 446.86703153 -213.6953125 441.81640625 C-213.26036972 440.93271866 -212.82542694 440.04903107 -212.37730408 439.13856506 C-210.9668547 436.27636736 -209.54588056 433.4195314 -208.125 430.5625 C-207.15071074 428.58882322 -206.17732424 426.61470054 -205.20483398 424.64013672 C-203.30712564 420.7873643 -201.40669199 416.93595753 -199.50439453 413.08544922 C-196.64399039 407.28710266 -193.83570738 401.46560069 -191.0625 395.625 C-190.2371622 393.89053789 -189.41164151 392.1561628 -188.5859375 390.421875 C-188.17569336 389.56013672 -187.76544922 388.69839844 -187.34277344 387.81054688 C-184.64172612 382.1570093 -181.91327156 376.51664632 -179.1875 370.875 C-178.89346283 370.26630066 -178.59942566 369.65760132 -178.29647827 369.03045654 C-176.49902739 365.30953447 -174.70104216 361.58887083 -172.90289307 357.86828613 C-170.22604142 352.329286 -167.55019361 346.7898011 -164.875 341.25 C-164.58329926 340.64597351 -164.29159851 340.04194702 -163.99105835 339.4196167 C-159.49276336 330.1038904 -155.0113041 320.7801738 -150.53857422 311.45214844 C-146.40886378 302.8430068 -142.25830273 294.24401154 -138.10449219 285.64648438 C-134.05777786 277.27000685 -130.02214271 268.88831098 -126 260.5 C-121.72108736 251.57716252 -117.42842644 242.66103654 -113.125 233.75 C-112.83336975 233.1461145 -112.5417395 232.542229 -112.24127197 231.92004395 C-109.86276624 226.99511867 -107.48352017 222.07055115 -105.10424805 217.14599609 C-103.02748929 212.84749623 -100.95101769 208.54885782 -98.875 204.25 C-98.58320862 203.64579224 -98.29141724 203.04158447 -97.99078369 202.41906738 C-93.49258206 193.10352336 -89.01121558 183.77998918 -84.53857422 174.45214844 C-80.40886378 165.8430068 -76.25830273 157.24401154 -72.10449219 148.64648438 C-68.05777791 140.27000696 -64.02209785 131.88833242 -60 123.5 C-55.38390988 113.87286017 -50.74738039 104.25571403 -46.10247803 94.64245605 C-42.09664292 86.35134071 -38.10399074 78.05403945 -34.125 69.75 C-29.08578567 59.23508383 -24.00179815 48.74221233 -18.90725708 38.25402832 C-13.95290671 28.0539561 -9.0326425 17.83891155 -4.18530273 7.58740234 C-3.77481689 6.72324707 -3.36433105 5.8590918 -2.94140625 4.96875 C-2.41075562 3.84629883 -2.41075562 3.84629883 -1.86938477 2.70117188 C-1 1 -1 1 0 0 Z " fill="#FE6FFE" transform="translate(2362,485)"/>
<path d="M0 0 C3.28736253 1.28117754 5.37262135 3.05185904 8.0234375 5.3828125 C9.08823997 6.30264108 10.15471185 7.22053991 11.22265625 8.13671875 C11.7748584 8.61254395 12.32706055 9.08836914 12.89599609 9.57861328 C15.64729828 11.90541521 18.49027281 14.11073757 21.3359375 16.3203125 C26.46972942 20.32254272 31.54331395 24.39134798 36.5859375 28.5078125 C43.84915313 34.43260844 51.19737702 40.24051329 58.5859375 46.0078125 C66.66486246 52.3139905 74.67805653 58.68904641 82.62011719 65.16699219 C89.20893323 70.53294436 95.88778886 75.77942905 102.5859375 81.0078125 C110.66486246 87.3139905 118.67805653 93.68904641 126.62011719 100.16699219 C133.20893323 105.53294436 139.88778886 110.77942905 146.5859375 116.0078125 C154.66486246 122.3139905 162.67805653 128.68904641 170.62011719 135.16699219 C177.20893323 140.53294436 183.88778886 145.77942905 190.5859375 151.0078125 C198.66486246 157.3139905 206.67805653 163.68904641 214.62011719 170.16699219 C221.20893323 175.53294436 227.88778886 180.77942905 234.5859375 186.0078125 C242.66486246 192.3139905 250.67805653 198.68904641 258.62011719 205.16699219 C265.20893323 210.53294436 271.88778886 215.77942905 278.5859375 221.0078125 C286.66486246 227.3139905 294.67805653 233.68904641 302.62011719 240.16699219 C309.20893323 245.53294436 315.88778886 250.77942905 322.5859375 256.0078125 C330.66566609 262.31461779 338.68022839 268.68964316 346.62231445 275.16918945 C351.49556735 279.13874605 356.41562518 283.04284105 361.3671875 286.9140625 C365.63056828 290.24936039 369.86383763 293.62044039 374.0859375 297.0078125 C381.21331032 302.72485152 388.39105492 308.37607082 395.5859375 314.0078125 C391.36166347 319.92697441 386.73323615 325.25592306 381.7109375 330.5078125 C381.04191406 331.21550781 380.37289062 331.92320312 379.68359375 332.65234375 C375.64678021 336.90694299 371.53892403 341.07986935 367.36157227 345.1965332 C365.62369393 346.96929814 364.00191455 348.80092385 362.3984375 350.6953125 C355.4412698 358.76945666 347.73417602 366.31247097 339.609375 373.203125 C336.99574864 375.53419716 334.5446051 378.01616786 332.0859375 380.5078125 C328.40446038 384.23378823 324.65298609 387.8063749 320.66796875 391.20703125 C318.15440172 393.38105452 315.71817521 395.63171738 313.2734375 397.8828125 C308.81070918 401.95321306 304.2233575 405.80958159 299.5234375 409.6015625 C296.2223908 412.30561139 292.99858633 415.08925727 289.7734375 417.8828125 C283.50052756 423.29399799 277.05968568 428.4477231 270.5078125 433.515625 C268.44329891 435.11856035 266.38911274 436.73413308 264.3359375 438.3515625 C253.94614117 446.51806543 243.36564845 454.36467296 232.5859375 462.0078125 C231.39097656 462.85859375 231.39097656 462.85859375 230.171875 463.7265625 C196.78352659 487.46938803 161.72442326 508.72534903 125.5859375 528.0078125 C124.68617188 528.48927734 123.78640625 528.97074219 122.859375 529.46679688 C84.05731538 550.16675603 43.98896643 567.69391232 2.61035156 582.55859375 C-0.6670607 583.73610241 -3.93787283 584.93066813 -7.20643616 586.13249207 C-20.65647268 591.07519929 -34.10836454 595.59137087 -47.94140625 599.33105469 C-51.24227786 600.2344923 -54.52677013 601.19101783 -57.81274414 602.14697266 C-62.33947342 603.45897978 -66.87610968 604.73525309 -71.4140625 606.0078125 C-72.48672363 606.30945312 -73.55938477 606.61109375 -74.66455078 606.921875 C-90.01098532 611.20763961 -105.4046176 615.01452121 -120.9765625 618.3828125 C-122.14384888 618.63656647 -122.14384888 618.63656647 -123.3347168 618.89544678 C-131.62834062 620.69026009 -139.8923286 622.34754205 -148.30444336 623.50244141 C-150.81264194 623.91007044 -153.23753002 624.40733743 -155.7109375 624.97631836 C-160.32724582 626.0235589 -164.95072447 626.75433048 -169.63671875 627.41015625 C-170.91760376 627.59357574 -170.91760376 627.59357574 -172.22436523 627.78070068 C-174.97452107 628.17310796 -177.72542433 628.55985617 -180.4765625 628.9453125 C-181.4234494 629.07853912 -182.3703363 629.21176575 -183.34591675 629.34902954 C-188.05679857 630.01140319 -192.76824927 630.66947655 -197.48046875 631.32226562 C-201.34533124 631.85775422 -205.20799252 632.4073884 -209.0703125 632.9609375 C-221.88955372 634.73841895 -234.76275343 635.73495846 -247.6640625 636.6953125 C-248.55473419 636.7622934 -249.44540588 636.82927429 -250.36306763 636.89828491 C-252.94739852 637.09026651 -255.53213552 637.27504007 -258.1171875 637.45703125 C-258.87581589 637.51310547 -259.63444427 637.56917969 -260.4160614 637.62695312 C-266.79172404 638.06015877 -272.97497274 638.0078125 -279.4140625 638.0078125 C-279.4140625 471.0278125 -279.4140625 304.0478125 -279.4140625 132.0078125 C-262.0890625 129.5328125 -262.0890625 129.5328125 -244.4140625 127.0078125 C-199.25963204 118.67160995 -156.46093466 103.46976868 -115.4140625 83.0078125 C-114.6298291 82.61770996 -113.8455957 82.22760742 -113.03759766 81.82568359 C-93.8690297 72.20467822 -75.66727264 60.72581386 -58.4140625 48.0078125 C-57.84623047 47.59160645 -57.27839844 47.17540039 -56.69335938 46.74658203 C-42.96292797 36.66150652 -29.74613247 25.87043826 -17.1640625 14.3828125 C-16.67043213 13.93284912 -16.17680176 13.48288574 -15.66821289 13.01928711 C-11.71283751 9.37188248 -8.03584782 5.50036643 -4.44921875 1.4921875 C-2.4140625 0.0078125 -2.4140625 0.0078125 0 0 Z " fill="#374597" transform="translate(2230.4140625,1650.9921875)"/>
<path d="M0 0 C6.7752688 0.5332704 12.64123997 1.9507293 19.0625 4.125 C21.01483126 4.76544554 22.96798721 5.40338147 24.921875 6.0390625 C25.92412109 6.36551758 26.92636719 6.69197266 27.95898438 7.02832031 C32.885867 8.60258114 37.84528525 10.0589071 42.8125 11.5 C43.79774658 11.78609131 44.78299316 12.07218262 45.7980957 12.36694336 C51.07536488 13.89040641 56.36037598 15.38389315 61.65234375 16.85546875 C62.75537842 17.16226563 63.85841309 17.4690625 64.99487305 17.78515625 C67.08785555 18.3653455 69.1817032 18.94242758 71.27661133 19.515625 C77.33016203 21.18821697 83.28372128 23.0592264 89.23193359 25.07397461 C92.85888642 26.28733076 96.51291563 27.37910231 100.1875 28.4375 C101.6666738 28.86846508 103.14584028 29.29945532 104.625 29.73046875 C105.35976562 29.94364746 106.09453125 30.15682617 106.8515625 30.37646484 C110.13190956 31.32851102 113.41010898 32.28783765 116.6875 33.25 C117.35265625 33.44513184 118.0178125 33.64026367 118.703125 33.84130859 C127.46930151 36.42110289 136.21706228 39.0631783 144.96557617 41.70214844 C155.41567687 44.8471705 165.89671731 47.86909127 176.4140625 50.78125 C177.44273437 51.06613281 178.47140625 51.35101562 179.53125 51.64453125 C181.60100855 52.21685085 183.67132685 52.78714985 185.7421875 53.35546875 C191.98014642 55.08736438 198.12280454 57.00251513 204.25390625 59.08056641 C207.87329584 60.29239261 211.52027773 61.38122283 215.1875 62.4375 C216.6666738 62.86846508 218.14584028 63.29945532 219.625 63.73046875 C220.35976562 63.94364746 221.09453125 64.15682617 221.8515625 64.37646484 C225.13190956 65.32851102 228.41010898 66.28783765 231.6875 67.25 C232.68523437 67.54269775 232.68523437 67.54269775 233.703125 67.84130859 C242.46930151 70.42110289 251.21706228 73.0631783 259.96557617 75.70214844 C271.27176507 79.10481551 282.61665443 82.35112069 294.00024414 85.484375 C303.99831817 88.24448464 313.90965635 91.18497443 323.77734375 94.37866211 C331.29741174 96.80342615 338.86373849 99.0369465 346.45483398 101.2277832 C356.09913788 104.01463896 365.7123071 106.90166684 375.32226562 109.80419922 C386.50871463 113.17564531 397.73588679 116.38393857 409.00024414 119.484375 C418.99831817 122.24448464 428.90965635 125.18497443 438.77734375 128.37866211 C446.29741174 130.80342615 453.86373849 133.0369465 461.45483398 135.2277832 C471.09913788 138.01463896 480.7123071 140.90166684 490.32226562 143.80419922 C501.50871463 147.17564531 512.73588679 150.38393857 524.00024414 153.484375 C533.99831817 156.24448464 543.90965635 159.18497443 553.77734375 162.37866211 C561.29741174 164.80342615 568.86373849 167.0369465 576.45483398 169.2277832 C586.09913788 172.01463896 595.7123071 174.90166684 605.32226562 177.80419922 C616.50871463 181.17564531 627.73588679 184.38393857 639.00024414 187.484375 C648.99608184 190.24386727 658.90520591 193.18370272 668.77075195 196.37646484 C678.38719039 199.47698335 688.08870164 202.26520318 697.79492188 205.06884766 C703.51599485 206.73095707 709.22636271 208.42912686 714.9375 210.125 C717.2252593 210.80338919 719.51301968 211.48177472 721.80078125 212.16015625 C725.40284853 213.22878221 729.00443792 214.29898158 732.60546875 215.37109375 C738.66248442 217.16886448 744.7262286 218.93055938 750.81640625 220.61328125 C763.85130826 224.21532322 776.76454325 228.06360767 789.62792969 232.23632812 C794.73449041 233.88035055 799.86701716 235.4407354 805 237 C803.51859539 243.97344119 801.74146962 250.82519059 799.8125 257.6875 C799.50570312 258.7818335 799.19890625 259.87616699 798.8828125 261.00366211 C796.62406457 268.97900142 794.17591058 276.87883693 791.6262207 284.76513672 C787.18191124 298.55747964 783.23803786 312.49915778 779.375 326.46386719 C776.65073953 336.30586624 773.76496344 346.06387614 770.62060547 355.77978516 C768.19596561 363.29899905 765.96281698 370.86455801 763.7722168 378.45483398 C760.98536104 388.09913788 758.09833316 397.7123071 755.19580078 407.32226562 C753.39528135 413.29638421 751.62986671 419.27662204 749.93359375 425.28125 C748.34709455 430.86550798 746.62278848 436.38085013 744.75 441.875 C744.481875 442.67035156 744.21375 443.46570312 743.9375 444.28515625 C743.29453924 446.19107564 742.64772318 448.09569384 742 450 C734.35997779 449.00422182 727.25192091 446.90152604 719.95776367 444.52490234 C713.18555981 442.33399139 706.36229466 440.38799182 699.5 438.5 C691.35419073 436.25324015 683.28124998 433.8704044 675.2421875 431.26953125 C668.70714832 429.17610344 662.11446921 427.32495596 655.5 425.5 C647.35435996 423.25258847 639.28127553 420.87041267 631.2421875 418.26953125 C624.70714832 416.17610344 618.11446921 414.32495596 611.5 412.5 C604.12003262 410.46384032 596.78424829 408.35641376 589.5 406 C581.17069933 403.30784621 572.76602572 400.9401177 564.33032227 398.60546875 C557.03415595 396.58212936 549.77335228 394.46579577 542.52758789 392.26953125 C536.0310323 390.30202157 529.51856376 388.39323652 523 386.5 C509.01741392 382.43231836 495.0580052 378.31138327 481.1875 373.875 C474.45039607 371.72129624 467.68429554 369.82492944 460.8359375 368.05078125 C456.55695415 366.87863612 452.34631192 365.54989666 448.125 364.1875 C440.63134546 361.77178242 433.08990224 359.59283354 425.5 357.5 C418.12000009 355.46396536 410.78424326 353.35641214 403.5 351 C395.17069933 348.30784621 386.76602572 345.9401177 378.33032227 343.60546875 C371.03415595 341.58212936 363.77335228 339.46579577 356.52758789 337.26953125 C350.03103485 335.30202235 343.51862496 333.39302068 337 331.5 C328.8466611 329.13075313 320.70699142 326.72130225 312.578125 324.26953125 C306.06289972 322.30873893 299.53349727 320.39892887 293 318.5 C279.01749251 314.43201744 265.05801687 310.311387 251.1875 305.875 C244.45039607 303.72129624 237.68429554 301.82492944 230.8359375 300.05078125 C226.55695415 298.87863612 222.34631192 297.54989666 218.125 296.1875 C210.63134546 293.77178242 203.08990224 291.59283354 195.5 289.5 C188.12000009 287.46396536 180.78424326 285.35641214 173.5 283 C165.17069933 280.30784621 156.76602572 277.9401177 148.33032227 275.60546875 C141.03415595 273.58212936 133.77335228 271.46579577 126.52758789 269.26953125 C120.03103485 267.30202235 113.51862496 265.39302068 107 263.5 C98.8466611 261.13075313 90.70699142 258.72130225 82.578125 256.26953125 C76.06289972 254.30873893 69.53349727 252.39892887 63 250.5 C49.01749251 246.43201744 35.05801687 242.311387 21.1875 237.875 C14.45039607 235.72129624 7.68429554 233.82492944 0.8359375 232.05078125 C-3.44305568 230.87863342 -7.65363227 229.54974415 -11.875 228.1875 C-22.56147343 224.74637389 -33.36941995 221.76842539 -44.18945312 218.77978516 C-47.98598287 217.72643943 -51.77545806 216.64939562 -55.5625 215.5625 C-56.63628906 215.25441406 -57.71007812 214.94632813 -58.81640625 214.62890625 C-59.53699219 214.42136719 -60.25757813 214.21382812 -61 214 C-62.01394714 210.8734811 -61.97974265 209.07916671 -60.92578125 205.98046875 C-60.67248047 205.21355713 -60.41917969 204.44664551 -60.15820312 203.65649414 C-59.87912109 202.84172607 -59.60003906 202.02695801 -59.3125 201.1875 C-58.74343061 199.46181343 -58.17704785 197.73523872 -57.61328125 196.0078125 C-57.33436035 195.15477539 -57.05543945 194.30173828 -56.76806641 193.42285156 C-55.73331369 190.15874285 -54.85626248 186.87823983 -54 183.5625 C-52.2968783 177.00232753 -50.38693636 170.52148143 -48.421875 164.03540039 C-46.404181 157.36935601 -44.44211276 150.68843125 -42.5 144 C-38.4324124 130.01738918 -34.31138214 116.05800166 -29.875 102.1875 C-27.72129624 95.45039607 -25.82492944 88.68429554 -24.05078125 81.8359375 C-22.87863612 77.55695415 -21.54989666 73.34631192 -20.1875 69.125 C-17.77178412 61.63135073 -15.59270318 54.08993612 -13.5 46.5 C-11.19296738 38.13272153 -8.7384311 29.84005424 -6.07177734 21.58081055 C-3.78525677 14.45238393 -1.84358579 7.25505232 0 0 Z " fill="#FEFEFE" transform="translate(948,2411)"/>
<path d="M0 0 C8.45846124 1.43778993 16.56019248 3.85727081 24.75 6.375 C27.30672794 7.15550214 29.86423051 7.93344475 32.421875 8.7109375 C33.68362549 9.09467529 34.94537598 9.47841309 36.24536133 9.8737793 C41.01361279 11.3040377 45.79922548 12.66805779 50.58837891 14.02636719 C56.17568414 15.62091229 61.74343385 17.28059112 67.3125 18.9375 C69.69138527 19.64329989 72.07029146 20.34902927 74.44921875 21.0546875 C77.46071234 21.94866439 80.47214321 22.84283674 83.48291016 23.73925781 C90.24595547 25.75274182 97.01463138 27.73394439 103.81640625 29.61328125 C114.87350424 32.66881442 125.85685696 35.84440662 136.77148438 39.37670898 C146.38768555 42.47712273 156.08894922 45.26527469 165.79492188 48.06884766 C171.51599485 49.73095707 177.22636271 51.42912686 182.9375 53.125 C185.2252593 53.80338919 187.51301968 54.48177472 189.80078125 55.16015625 C193.40284853 56.22878221 197.00443792 57.29898158 200.60546875 58.37109375 C206.66248442 60.16886448 212.7262286 61.93055938 218.81640625 63.61328125 C229.87350424 66.66881442 240.85685696 69.84440662 251.77148438 73.37670898 C261.38768555 76.47712273 271.08894922 79.26527469 280.79492188 82.06884766 C286.51599485 83.73095707 292.22636271 85.42912686 297.9375 87.125 C300.2252593 87.80338919 302.51301968 88.48177472 304.80078125 89.16015625 C308.40284853 90.22878221 312.00443792 91.29898158 315.60546875 92.37109375 C321.66248442 94.16886448 327.7262286 95.93055938 333.81640625 97.61328125 C344.87350424 100.66881442 355.85685696 103.84440662 366.77148438 107.37670898 C376.38768555 110.47712273 386.08894922 113.26527469 395.79492188 116.06884766 C401.51599485 117.73095707 407.22636271 119.42912686 412.9375 121.125 C415.2252593 121.80338919 417.51301968 122.48177472 419.80078125 123.16015625 C423.40284853 124.22878221 427.00443792 125.29898158 430.60546875 126.37109375 C436.66248442 128.16886448 442.7262286 129.93055938 448.81640625 131.61328125 C459.87350424 134.66881442 470.85685696 137.84440662 481.77148438 141.37670898 C491.38768555 144.47712273 501.08894922 147.26527469 510.79492188 150.06884766 C516.51599485 151.73095707 522.22636271 153.42912686 527.9375 155.125 C530.2252593 155.80338919 532.51301968 156.48177472 534.80078125 157.16015625 C538.40284853 158.22878221 542.00443792 159.29898158 545.60546875 160.37109375 C551.66248442 162.16886448 557.7262286 163.93055938 563.81640625 165.61328125 C574.87350424 168.66881442 585.85685696 171.84440662 596.77148438 175.37670898 C606.38768555 178.47712273 616.08894922 181.26527469 625.79492188 184.06884766 C631.51599485 185.73095707 637.22636271 187.42912686 642.9375 189.125 C645.2252593 189.80338919 647.51301968 190.48177472 649.80078125 191.16015625 C653.40284853 192.22878221 657.00443792 193.29898158 660.60546875 194.37109375 C666.66248442 196.16886448 672.7262286 197.93055938 678.81640625 199.61328125 C689.87350424 202.66881442 700.85685696 205.84440662 711.77148438 209.37670898 C721.38768555 212.47712273 731.08894922 215.26527469 740.79492188 218.06884766 C746.51599305 219.73095654 752.22643708 221.4288812 757.9375 223.125 C764.6611473 225.12161608 771.3851427 227.1163011 778.11767578 229.08276367 C786.77973317 231.61353934 795.39600838 234.27868367 804 237 C803.43618377 241.43314329 802.65341689 245.59508259 801.375 249.875 C800.02292439 254.47303329 798.69644304 259.07403204 797.42578125 263.6953125 C794.3691099 274.79783572 791.16734422 285.82108078 787.62133789 296.77734375 C785.19657385 304.29741174 782.9630535 311.86373849 780.7722168 319.45483398 C777.98536104 329.09913788 775.09833316 338.7123071 772.19580078 348.32226562 C768.82435469 359.50871463 765.61606143 370.73588679 762.515625 382.00024414 C759.76023806 391.98121092 756.82823189 401.87698116 753.63671875 411.72680664 C749.44297205 424.72246257 745.74384715 437.86914096 742 451 C734.99242883 449.40546285 728.1466184 447.45724818 721.3125 445.25 C713.75623966 442.81279353 706.15394381 440.6095881 698.5 438.5 C690.35429714 436.25282487 682.28126691 433.87040988 674.2421875 431.26953125 C667.70714832 429.17610344 661.11446921 427.32495596 654.5 425.5 C647.12003262 423.46384032 639.78424829 421.35641376 632.5 419 C624.17069933 416.30784621 615.76602572 413.9401177 607.33032227 411.60546875 C600.03415595 409.58212936 592.77335228 407.46579577 585.52758789 405.26953125 C579.0310323 403.30202157 572.51856376 401.39323652 566 399.5 C552.01741392 395.43231836 538.0580052 391.31138327 524.1875 386.875 C517.45039607 384.72129624 510.68429554 382.82492944 503.8359375 381.05078125 C499.55695415 379.87863612 495.34631192 378.54989666 491.125 377.1875 C483.63134546 374.77178242 476.08990224 372.59283354 468.5 370.5 C460.35432293 368.25272617 452.2812707 365.87041111 444.2421875 363.26953125 C437.70714832 361.17610344 431.11446921 359.32495596 424.5 357.5 C417.12003262 355.46384032 409.78424829 353.35641376 402.5 351 C394.17069933 348.30784621 385.76602572 345.9401177 377.33032227 343.60546875 C370.03415595 341.58212936 362.77335228 339.46579577 355.52758789 337.26953125 C349.0310323 335.30202157 342.51856376 333.39323652 336 331.5 C322.01741392 327.43231836 308.0580052 323.31138327 294.1875 318.875 C287.45039607 316.72129624 280.68429554 314.82492944 273.8359375 313.05078125 C269.55695415 311.87863612 265.34631192 310.54989666 261.125 309.1875 C253.63134546 306.77178242 246.08990224 304.59283354 238.5 302.5 C230.35432293 300.25272617 222.2812707 297.87041111 214.2421875 295.26953125 C207.70714832 293.17610344 201.11446921 291.32495596 194.5 289.5 C187.12003262 287.46384032 179.78424829 285.35641376 172.5 283 C164.17069933 280.30784621 155.76602572 277.9401177 147.33032227 275.60546875 C140.03415595 273.58212936 132.77335228 271.46579577 125.52758789 269.26953125 C119.0310323 267.30202157 112.51856376 265.39323652 106 263.5 C92.01741392 259.43231836 78.0580052 255.31138327 64.1875 250.875 C57.45039607 248.72129624 50.68429554 246.82492944 43.8359375 245.05078125 C39.55695415 243.87863612 35.34631192 242.54989666 31.125 241.1875 C23.63134546 238.77178242 16.08990224 236.59283354 8.5 234.5 C1.12000969 232.46396801 -6.21582152 230.35659962 -13.5 228 C-21.9741594 225.25884816 -30.52921368 222.85662484 -39.11132812 220.47802734 C-60.43942066 214.56057934 -60.43942066 214.56057934 -62 213 C-61.54989592 207.18079719 -60.23479164 202.0707582 -58.375 196.5625 C-55.88513966 188.94605373 -53.63210947 181.28652427 -51.5 173.5625 C-49.18288056 165.18717106 -46.79025892 156.84379872 -44.26953125 148.52758789 C-42.30202235 142.03103485 -40.39302068 135.51862496 -38.5 129 C-36.13075313 120.8466611 -33.72130225 112.70699142 -31.26953125 104.578125 C-29.30873893 98.06289972 -27.39892887 91.53349727 -25.5 85 C-21.43201744 71.01749251 -17.311387 57.05801687 -12.875 43.1875 C-10.73160765 36.48265169 -8.84013888 29.75019829 -7.078125 22.93359375 C-5.01715989 15.2049746 -2.45731692 7.60949138 0 0 Z " fill="#FEFEFE" transform="translate(863,2700)"/>
<path d="M0 0 C0.88292725 0.70793701 0.88292725 0.70793701 1.78369141 1.43017578 C29.31757607 23.70271499 46.52940293 53.35099632 53 88 C53.1750708 88.91998779 53.3501416 89.83997559 53.53051758 90.7878418 C58.91505216 127.62836261 49.2367386 165.62851382 27.171875 195.47265625 C25.17260001 198.03676706 23.10923674 200.52555972 21 203 C20.18789062 203.9590625 19.37578125 204.918125 18.5390625 205.90625 C-4.88156689 232.86989943 -39.61883558 249.12369909 -75 252 C-115.12874991 254.44173487 -151.80656295 241.178913 -181.92822266 214.79785156 C-187.94730625 209.37269242 -193.12346345 203.45786005 -198 197 C-198.59167969 196.22398437 -199.18335938 195.44796875 -199.79296875 194.6484375 C-217.60543413 170.27348487 -226.22555978 142.1819158 -226.25 112.125 C-226.25067474 111.38323517 -226.25134949 110.64147034 -226.25204468 109.87722778 C-226.23624559 98.96241924 -225.84412579 88.59979412 -223 78 C-222.82839355 77.34902344 -222.65678711 76.69804688 -222.47998047 76.02734375 C-216.88658633 55.27330222 -207.16615977 36.23096903 -193 20 C-191.73542969 18.53626953 -191.73542969 18.53626953 -190.4453125 17.04296875 C-143.17252521 -36.68497575 -56.06357461 -45.41000658 0 0 Z " fill="#FEF58E" transform="translate(1992,1218)"/>
</svg>
