<svg width="139" height="32" viewBox="0 0 139 32" fill="none" xmlns="http://www.w3.org/2000/svg">
<path fill-rule="evenodd" clip-rule="evenodd" d="M47.4613 7.28125C44.6217 7.28125 42.1712 8.51809 40.5014 10.8609V8.38219C40.5014 8.02581 40.213 7.73738 39.8566 7.73738H38.7757C38.4193 7.73738 38.1309 8.02581 38.1309 8.38219V31.2596C38.1309 31.616 38.4193 31.9044 38.7757 31.9044H39.8566C40.213 31.9044 40.5014 31.616 40.5014 31.2596V22.526C42.1081 24.8367 44.688 26.0725 47.4613 26.0725C52.9594 26.0725 57.085 21.8497 57.085 16.6443C57.085 11.4382 52.8936 7.28125 47.4613 7.28125ZM40.3711 16.7094C40.3711 12.6607 43.6099 9.42373 47.4287 9.42373C51.7358 9.42373 54.7144 12.6929 54.7144 16.742C54.7144 20.7891 51.4772 23.93 47.4613 23.93C43.4471 23.93 40.3711 20.7581 40.3711 16.7094Z" fill="#161313"/>
<path fill-rule="evenodd" clip-rule="evenodd" d="M69.4694 7.28125C64.2337 7.28125 59.8457 11.2742 59.8457 16.6443C59.8457 22.0135 64.1025 26.0725 69.4694 26.0725C72.3715 26.0725 74.9513 24.7406 76.4293 22.527V25.0041C76.4293 25.3605 76.7177 25.6489 77.0741 25.6489H78.155C78.5114 25.6489 78.7998 25.3605 78.7998 25.0041V8.38219C78.7998 8.02581 78.5114 7.73738 78.155 7.73738H77.0741C76.7177 7.73738 76.4293 8.02581 76.4293 8.38219V10.8583C74.9835 8.61269 72.4358 7.28125 69.4694 7.28125ZM62.2162 16.742C62.2162 12.5314 65.4216 9.42373 69.4368 9.42373C73.4504 9.42373 76.5596 12.7578 76.5596 16.7094C76.5596 20.693 73.4185 23.93 69.4694 23.93C65.2906 23.93 62.2162 20.952 62.2162 16.742Z" fill="#161313"/>
<path d="M86.3955 1.45117C86.0391 1.45117 85.7507 1.73961 85.7507 2.09599V7.42964C85.7507 7.60221 85.6117 7.74116 85.4392 7.74116H82.6487C82.2923 7.74116 82.0039 8.0296 82.0039 8.38598V9.23882C82.0039 9.5952 82.2923 9.88364 82.6487 9.88364H85.4392C85.6117 9.88364 85.7507 10.0226 85.7507 10.1952V25.006C85.7507 25.3623 86.0391 25.6508 86.3955 25.6508H87.4764C87.8328 25.6508 88.1212 25.3623 88.1212 25.006V10.1932C88.1212 10.0207 88.2602 9.88172 88.4328 9.88172H91.7445C92.1009 9.88172 92.3893 9.59329 92.3893 9.23691V8.38406C92.3893 8.02768 92.1009 7.73925 91.7445 7.73925H88.4328C88.2602 7.73925 88.1212 7.6003 88.1212 7.42772V2.09599C88.1212 1.73961 87.8328 1.45117 87.4764 1.45117H86.3955Z" fill="#161313"/>
<path d="M96.0843 1.45117C95.7279 1.45117 95.4395 1.73961 95.4395 2.09599V25.006C95.4395 25.3623 95.7279 25.6508 96.0843 25.6508H97.1652C97.5216 25.6508 97.81 25.3623 97.81 25.006V15.5058C97.81 13.7716 98.3367 12.2515 99.2894 11.1656C100.242 10.0803 101.622 9.42559 103.336 9.42559C104.889 9.42559 106.261 9.99139 107.246 11.0525C108.23 12.1137 108.83 13.6741 108.83 15.6687V25.006C108.83 25.3623 109.119 25.6508 109.475 25.6508H110.556C110.912 25.6508 111.201 25.3623 111.201 25.006V15.6687C111.201 13.1839 110.465 11.087 109.108 9.61087C107.75 8.13428 105.774 7.28312 103.304 7.28312C100.989 7.28312 98.9628 8.28893 97.81 10.0141V2.09599C97.81 1.73961 97.5216 1.45117 97.1652 1.45117H96.0843Z" fill="#161313"/>
<path d="M116.491 1.45117C116.134 1.45117 115.846 1.73961 115.846 2.09599V25.006C115.846 25.3623 116.134 25.6508 116.491 25.6508H117.571C117.928 25.6508 118.216 25.3623 118.216 25.006V2.09599C118.216 1.73961 117.928 1.45117 117.571 1.45117H116.491Z" fill="#161313"/>
<path d="M123.508 1.45312C123.152 1.45312 122.863 1.74156 122.863 2.09794V5.00337C122.863 5.35975 123.152 5.64819 123.508 5.64819H124.589C124.945 5.64819 125.234 5.35975 125.234 5.00337V2.09794C125.234 1.74156 124.945 1.45312 124.589 1.45312H123.508Z" fill="#161313"/>
<path d="M123.508 7.73929C123.152 7.73929 122.863 8.02772 122.863 8.3841V25.006C122.863 25.3624 123.152 25.6508 123.508 25.6508H124.589C124.945 25.6508 125.234 25.3624 125.234 25.006V8.3841C125.234 8.02772 124.945 7.73929 124.589 7.73929H123.508Z" fill="#161313"/>
<path d="M132.577 1.45117C132.221 1.45117 131.932 1.73961 131.932 2.09599V7.42964C131.932 7.60221 131.793 7.74116 131.621 7.74116H128.83C128.474 7.74116 128.186 8.0296 128.186 8.38598V9.23882C128.186 9.5952 128.474 9.88364 128.83 9.88364H131.621C131.793 9.88364 131.932 10.0226 131.932 10.1952V25.006C131.932 25.3623 132.221 25.6508 132.577 25.6508H133.658C134.014 25.6508 134.303 25.3623 134.303 25.006V10.1932C134.303 10.0207 134.442 9.88172 134.614 9.88172H137.926C138.283 9.88172 138.571 9.59329 138.571 9.23691V8.38406C138.571 8.02768 138.283 7.73925 137.926 7.73925H134.614C134.442 7.73925 134.303 7.6003 134.303 7.42772V2.09599C134.303 1.73961 134.014 1.45117 133.658 1.45117H132.577Z" fill="#161313"/>
<path d="M23.636 24.5412C23.636 24.8593 23.5134 25.1564 23.2892 25.3787C23.0649 25.6029 22.7659 25.7256 22.4497 25.7256C22.1335 25.7256 21.8345 25.6029 21.6122 25.3787L18.1663 21.9328C17.9996 21.7699 17.7543 21.722 17.5415 21.8101C17.323 21.9002 17.187 22.1034 17.187 22.3391V30.8197C17.187 31.1436 17.0605 31.4464 16.8286 31.6706C16.6063 31.8872 16.3111 32.006 15.9987 32.006H15.9642C15.3299 31.9887 14.8124 31.4368 14.8124 30.7756V22.3391C14.8124 22.1034 14.6783 21.9002 14.4598 21.8101C14.249 21.7201 13.9998 21.7699 13.8369 21.9347L10.4255 25.3442C10.1936 25.5761 9.86973 25.7102 9.53818 25.7102H9.52093C9.19512 25.7045 8.89998 25.5761 8.68916 25.3499C8.48026 25.1315 8.36719 24.8421 8.36719 24.5373C8.36719 24.2326 8.48984 23.9221 8.71408 23.6979L14.7913 17.6206L14.9025 17.5095C15.1919 17.245 15.5771 17.0859 15.9987 17.0859C16.4491 17.0859 16.8554 17.268 17.1506 17.5612C17.1506 17.5612 17.1525 17.5651 17.1544 17.5651L23.2892 23.7017C23.5153 23.9279 23.638 24.2269 23.636 24.5412Z" fill="#F65D33"/>
<path d="M31.702 15.2095C31.474 14.9488 31.1443 14.7993 30.7974 14.7993H24.4154C23.6508 14.7993 22.957 14.3087 22.6925 13.5766C22.6254 13.3907 22.5449 13.1971 22.4529 12.9997C22.1214 12.2868 22.2613 11.4454 22.8017 10.9031L26.0272 7.55301C26.4699 7.11029 26.5255 6.41843 26.1595 5.94314C25.9487 5.66716 25.6286 5.49659 25.2817 5.47359C24.9406 5.45059 24.5956 5.58092 24.3522 5.82431L21.096 9.20121C20.7549 9.54235 20.2969 9.73016 19.8043 9.73016C19.5264 9.73016 19.2562 9.66883 19.0013 9.55001C18.8135 9.46377 18.6199 9.38327 18.4244 9.31236C17.6923 9.04405 17.1998 8.35219 17.1998 7.5875V1.20744C17.1998 0.862467 17.0503 0.532827 16.7916 0.302845C16.5712 0.109278 16.2875 0.00195312 15.9943 0.00195312C15.9445 0.00195312 15.8908 0.00578615 15.841 0.0115357C15.2449 0.0901126 14.7946 0.61907 14.7946 1.24194V7.58559C14.7946 8.35028 14.302 9.04405 13.5699 9.30853C13.3859 9.37561 13.1923 9.4561 12.993 9.54809C12.7381 9.66692 12.4679 9.72825 12.19 9.72825C11.6975 9.72825 11.2394 9.54043 10.8983 9.19929L7.57313 5.87414C7.34315 5.64608 7.04034 5.52151 6.72028 5.52151C6.39639 5.52342 6.0955 5.64991 5.87127 5.87606C5.64512 6.10221 5.51863 6.40502 5.51863 6.72699C5.51863 7.04896 5.64321 7.34986 5.86935 7.576L9.1945 10.9031C9.73688 11.4435 9.87678 12.2849 9.54522 12.9978C9.45898 13.1799 9.37849 13.3735 9.30566 13.5747C9.03926 14.3068 8.34549 14.7974 7.5808 14.7974H1.20456C0.859591 14.7974 0.529951 14.9469 0.299969 15.2076C0.069988 15.4663 -0.0354201 15.8132 0.0105762 16.1581C0.0872366 16.7542 0.616194 17.2046 1.24289 17.2046H10.3866L10.4153 17.1969C10.6089 17.1758 10.7718 17.1011 10.8983 16.9727C11.019 16.8481 11.1838 16.6124 11.2011 16.0029C11.2088 15.7633 11.2222 15.4797 11.2682 15.2037C11.387 14.4927 11.6726 13.8066 12.0942 13.2201C12.4085 12.7793 12.786 12.4018 13.2173 12.0971C13.8152 11.6678 14.4822 11.3899 15.2009 11.271C15.7241 11.181 16.2703 11.181 16.7954 11.271C17.5064 11.3899 18.1925 11.6754 18.7809 12.0971C19.2179 12.4094 19.5954 12.787 19.904 13.2201C20.3237 13.8047 20.6092 14.4908 20.7281 15.2037C20.7722 15.4548 20.7951 15.7231 20.7951 16.001C20.7951 16.2003 20.8411 17.2007 21.7342 17.2046H30.7553C31.38 17.2046 31.9109 16.7542 31.9876 16.1581C32.0317 15.8113 31.9263 15.4644 31.6982 15.2076L31.702 15.2095Z" fill="#F65D33"/>
</svg>
