<svg width="107" height="107" viewBox="0 0 107 107" fill="none" xmlns="http://www.w3.org/2000/svg">
<path d="M78.9985 82.0056C78.9985 83.069 78.5885 84.0619 77.839 84.8049C77.0896 85.5544 76.0903 85.9644 75.0333 85.9644C73.9764 85.9644 72.9771 85.5544 72.2341 84.8049L60.7166 73.2875C60.1593 72.743 59.3394 72.5829 58.6284 72.8775C57.8981 73.1786 57.4433 73.8576 57.4433 74.6455V102.991C57.4433 104.073 57.0206 105.085 56.2455 105.835C55.5024 106.559 54.5159 106.956 53.4718 106.956H53.3565C51.2362 106.898 49.5067 105.053 49.5067 102.843V74.6455C49.5067 73.8576 49.0583 73.1786 48.328 72.8775C47.6234 72.5765 46.7907 72.743 46.2462 73.2939L34.8441 84.6896C34.069 85.4647 32.9864 85.9131 31.8782 85.9131H31.8206C30.7316 85.8939 29.7451 85.4647 29.0405 84.7088C28.3423 83.9786 27.9644 83.0113 27.9644 81.9928C27.9644 80.9743 28.3743 79.9366 29.1238 79.1871L49.4362 58.8747L49.8077 58.5032C50.775 57.6192 52.0626 57.0875 53.4718 57.0875C54.9771 57.0875 56.3351 57.6961 57.3216 58.6761C57.3216 58.6761 57.328 58.6889 57.3344 58.6889L77.839 79.2C78.5949 79.9558 79.0049 80.9551 78.9985 82.0056Z" fill="#F65D33"/>
<path d="M105.96 50.8291C105.198 49.958 104.096 49.4583 102.936 49.4583H81.6054C79.0495 49.4583 76.7306 47.8185 75.8467 45.3715C75.6225 44.7501 75.3534 44.1032 75.046 43.4434C73.9378 41.0605 74.4054 38.2484 76.2118 36.4356L86.9926 25.2384C88.4723 23.7587 88.658 21.4462 87.4346 19.8576C86.7299 18.9352 85.6602 18.3651 84.5007 18.2882C83.3605 18.2114 82.2075 18.647 81.394 19.4605L70.5107 30.7473C69.3705 31.8875 67.8396 32.5153 66.1933 32.5153C65.2645 32.5153 64.3613 32.3103 63.5093 31.9131C62.8815 31.6249 62.2346 31.3558 61.5812 31.1188C59.1342 30.222 57.488 27.9096 57.488 25.3537V4.02918C57.488 2.87615 56.9883 1.77438 56.1236 1.00569C55.3869 0.358718 54.4389 0 53.4588 0C53.2922 0 53.1129 0.0128114 52.9463 0.0320284C50.9542 0.294662 49.4488 2.06263 49.4488 4.14448V25.3473C49.4488 27.9032 47.8026 30.222 45.3556 31.106C44.7406 31.3302 44.0937 31.5993 43.4275 31.9067C42.5755 32.3039 41.6723 32.5089 40.7435 32.5089C39.0972 32.5089 37.5663 31.8811 36.4261 30.7409L25.3122 19.627C24.5435 18.8647 23.5314 18.4484 22.4617 18.4484C21.3791 18.4548 20.3734 18.8776 19.6239 19.6334C18.8681 20.3893 18.4453 21.4014 18.4453 22.4776C18.4453 23.5537 18.8617 24.5594 19.6175 25.3153L30.7314 36.4356C32.5442 38.242 33.0118 41.0541 31.9036 43.437C31.6154 44.0455 31.3463 44.6925 31.1029 45.3651C30.2125 47.8121 27.8937 49.4519 25.3378 49.4519H4.02609C2.87307 49.4519 1.77129 49.9516 1.00261 50.8227C0.233926 51.6875 -0.118387 52.8469 0.0353494 54C0.291577 55.9921 2.05955 57.4975 4.15421 57.4975H34.7157L34.8118 57.4718C35.4588 57.4014 36.0033 57.1516 36.4261 56.7224C36.8296 56.306 37.3805 55.5181 37.4382 53.4811C37.4638 52.6804 37.5086 51.7323 37.6624 50.8099C38.0595 48.4334 39.014 46.1402 40.4232 44.18C41.4737 42.7067 42.7357 41.4448 44.1769 40.4263C46.1755 38.9914 48.4047 38.0626 50.8068 37.6654C52.5556 37.3644 54.3812 37.3644 56.1364 37.6654C58.5129 38.0626 60.8061 39.017 62.7727 40.4263C64.2331 41.4704 65.4951 42.7323 66.5264 44.18C67.9292 46.1338 68.8837 48.427 69.2808 50.8099C69.4282 51.6491 69.505 52.5459 69.505 53.4747C69.505 54.1409 69.6588 57.4846 72.6438 57.4975H102.795C104.884 57.4975 106.658 55.9921 106.914 54C107.062 52.8405 106.709 51.6811 105.947 50.8227L105.96 50.8291Z" fill="#F65D33"/>
</svg>
